<?xml version='1.0' encoding='utf-8'?>
<!DOCTYPE svg PUBLIC '-//W3C//DTD SVG 1.1//EN' 'http://www.w3.org/Graphics/SVG/1.1/DTD/svg11.dtd'>
<!-- Uploaded to: SVG Repo, www.svgrepo.com, Generator: SVG Repo Mixer Tools -->
<svg fill="#b4b4b4" height="800px" width="800px" version="1.1" xmlns="http://www.w3.org/2000/svg" viewBox="0 0 512 512" xmlns:xlink="http://www.w3.org/1999/xlink" enable-background="new 0 0 512 512">
  <g>
    <g>
      <path d="m316.9,157.8h-121.8c-48,0-87.1,39.1-87.1,87.1v41.5h296v-41.5c0-48-39-87.1-87.1-87.1z"/>
      <path d="M108,480.6c0,11.3,9.1,20.4,20.4,20.4h255.2c11.3,0,20.4-9.1,20.4-20.4V327.2H108V480.6z"/>
      <path d="m316.9,116.8c12.2,0 24.1,1.7 35.3,5v-90.4c0-11.3-9.1-20.4-20.4-20.4h-149.2c-11.3,0-20.4,9.1-20.4,20.4v89.7c10.5-2.8 21.5-4.3 32.9-4.3h121.8z"/>
    </g>
  </g>
</svg>